<svg id="Слой_1" data-name="Слой 1" xmlns="http://www.w3.org/2000/svg" viewBox="0 0 60 60"><title>papa-palka__logo</title><rect width="60" height="60" style="fill:#fff"/><path d="M0,0V60H60V0ZM57.43,57.43H2.57V2.57H57.43Z" style="fill:#1d1d1b"/><polygon points="7.71 7.72 13.06 7.72 13.06 28.72 15.63 28.72 15.63 5.15 15.43 5.15 13.06 5.15 7.71 5.15 5.14 5.15 5.14 7.72 5.14 28.72 7.71 28.72 7.71 7.72" style="fill:#1d1d1b"/><polygon points="33.35 7.72 38.7 7.72 38.7 28.72 41.27 28.72 41.27 5.15 41.06 5.15 38.7 5.15 33.35 5.15 30.78 5.15 30.78 7.72 30.78 28.72 33.35 28.72 33.35 7.72" style="fill:#1d1d1b"/><path d="M46,28.72l.88-8.6H51.4l.87,8.6h2.59L52.48,5.27h0V5.15H44.36V7.72h1.16l-2.13,21Zm4.17-21,1,9.83h-4l1-9.83Z" style="fill:#1d1d1b"/><path d="M20.26,28.72l.87-8.6h4.56l.87,8.6h2.58L26.76,5.27h0V5.15h-8.1V7.72H19.8l-2.13,21Zm4.17-21,1,9.83h-4l1-9.83Z" style="fill:#1d1d1b"/><polygon points="7.37 33.52 11.51 33.52 11.51 54.86 13.74 54.86 13.74 31.29 13.7 31.29 11.51 31.29 7.37 31.29 5.14 31.29 5.14 33.52 5.14 54.86 7.37 54.86 7.37 33.52" style="fill:#1d1d1b"/><polygon points="39.56 41.46 37.48 41.46 37.48 31.29 35.25 31.29 35.25 54.86 37.48 54.86 37.48 43.69 39.39 43.69 41.18 54.86 42.58 54.86 43.43 54.86 44.15 54.86 44.15 52.63 43.08 52.63 41.55 43.12 43.09 33.52 44.15 33.52 44.15 31.29 43.45 31.29 42.58 31.29 41.19 31.29 39.56 41.46" style="fill:#1d1d1b"/><path d="M23.41,31.29H15.58v2.23h1.19L14.59,54.86h2.24l.92-8.94h4.33l.56,8.94h2.23L23.41,31.65ZM18,43.69l1-10.17H21.3l.64,10.17Z" style="fill:#1d1d1b"/><path d="M53.4,31.29H45.56v2.23h1.19L44.58,54.86h2.24l.91-8.94h4.33l.56,8.94h2.24L53.4,31.65ZM48,43.69l1-10.17h2.29l.64,10.17Z" style="fill:#1d1d1b"/><polygon points="26.68 31.29 26.68 33.52 27.64 33.52 25.55 54.86 27.79 54.86 29.88 33.52 29.99 33.52 32.09 54.86 34.32 54.86 32.05 31.29 26.68 31.29" style="fill:#1d1d1b"/></svg>