<svg id="Слой_1" data-name="Слой 1" xmlns="http://www.w3.org/2000/svg" viewBox="0 0 30 19"><title>icon__handlebars</title><g id="outline"><path d="M.38,3l7,1.73a3.34,3.34,0,0,1,1.58.9l.59.59A4.4,4.4,0,0,0,12.62,7.5h5a4.42,4.42,0,0,0,3.45-1.66A3.46,3.46,0,0,1,22.9,4.66L29.62,3A.51.51,0,0,0,30,2.5V.5a.5.5,0,0,0-.5-.5h-.1L20.76,1.83A3.54,3.54,0,0,0,19,2.77a2.47,2.47,0,0,1-1.76.73H12.73A2.46,2.46,0,0,1,11,2.77a3.54,3.54,0,0,0-1.74-.94L.6,0A.5.5,0,0,0,0,.4.34.34,0,0,0,0,.5v2A.51.51,0,0,0,.38,3ZM1,1.12,9,2.81a2.48,2.48,0,0,1,1.24.67,3.44,3.44,0,0,0,2.23,1V5h1V4.5h1V5h1V4.5h1V5h1V4.49a3.44,3.44,0,0,0,2.23-1A2.48,2.48,0,0,1,21,2.81l8-1.69v1L22.66,3.7a4.43,4.43,0,0,0-2.38,1.52A3.38,3.38,0,0,1,17.62,6.5H17.5V6h-1v.5h-1V6h-1v.5h-1V6h-1v.49a3.36,3.36,0,0,1-2.29-1l-.59-.59a4.52,4.52,0,0,0-2-1.16L1,2.11Z"/><path d="M.35,9.48l10.41,3.26a3.58,3.58,0,0,0,1.33.26h5.82a3.37,3.37,0,0,0,1.29-.25L29.65,9.48A.5.5,0,0,0,30,9V7a.5.5,0,0,0-.5-.5h-.11L18.44,9H11.56L.61,6.51a.5.5,0,0,0-.6.38A.41.41,0,0,0,0,7V9A.5.5,0,0,0,.35,9.48ZM1,7.63,11.39,10H12.5v.5h1V10h1v.5h1V10h1v.5h1V10h1.11L29,7.63v1L18.86,11.81a2.41,2.41,0,0,1-.95.19H17.5v-.5h-1V12h-1v-.5h-1V12h-1v-.5h-1V12h-.41a2.61,2.61,0,0,1-1-.2L1,8.63Z"/><path d="M.39,16.49l10.42,2.27a3.5,3.5,0,0,0,1.28.24h5.82a3.5,3.5,0,0,0,1.28-.24l10.42-2.27A.49.49,0,0,0,30,16V14a.5.5,0,0,0-.5-.5h-.07l-11,1.5H11.53l-11-1.5a.51.51,0,0,0-.57.43V16A.49.49,0,0,0,.39,16.49ZM1,14.57,11.43,16H12.5v.5h1V16h1v.5h1V16h1v.5h1V16h1.07L29,14.57v1L18.94,17.79l-.08,0a2.41,2.41,0,0,1-.95.19H17.5v-.5h-1V18h-1v-.5h-1V18h-1v-.5h-1V18h-.41a2.41,2.41,0,0,1-.95-.19l-.08,0L1,15.6Z"/></g></svg>