<svg id="Слой_1" data-name="Слой 1" xmlns="http://www.w3.org/2000/svg" viewBox="0 0 30 19.35"><title>icon__cycle</title><g id="outline"><path d="M23.71,6.77a6.28,6.28,0,0,0-2.06.35l-2-4.7H22.5a.72.72,0,0,1,.72.72.73.73,0,0,1-.72.73H21.29v1H22.5a1.7,1.7,0,0,0,0-3.39H18.87a.48.48,0,0,0-.48.48.45.45,0,0,0,0,.2l1,2.22h-8.1l-.57-1.77L12.35,2A1,1,0,0,0,12,0H8.43A1.17,1.17,0,0,0,7.26,1.17,1.19,1.19,0,0,0,7.6,2l.28.28a2.1,2.1,0,0,0,1.92.59l.52,1.63a.4.4,0,0,0-.1.12L8.8,7.29a6.29,6.29,0,1,0,3.25,8.28c.06-.14.12-.28.17-.42a1.92,1.92,0,0,0,1.72,1.28l.36,1.09a.48.48,0,0,0,.45.34l1.69,0,0-1-1.35,0-.22-.66a1.92,1.92,0,0,0,.88-2.56,1.62,1.62,0,0,0-.25-.39l4.84-6.71.41.93a6.27,6.27,0,1,0,2.94-.74ZM9.79,1.87a1.21,1.21,0,0,1-1.23-.29l-.27-.27a.21.21,0,0,1,0-.29A.24.24,0,0,1,8.43,1H12a.08.08,0,0,1,.08.08.08.08,0,0,1,0,.07ZM6.29,18.38A5.32,5.32,0,1,1,8.35,8.15L5.87,12.83a.48.48,0,0,0,.2.66l.14,0,5.2,1A5.32,5.32,0,0,1,6.29,18.38Zm5.3-4.82L7,12.7,9.2,8.61a5.35,5.35,0,0,1,2.42,4.45,4.07,4.07,0,0,1,0,.5Zm1-.3c0-.07,0-.13,0-.2A6.28,6.28,0,0,0,9.65,7.75l1.07-2L13,12.88a1.92,1.92,0,0,0-.43.38Zm2,2.05-.33-1-.92.3.25.74a1,1,0,1,1,1.3-.39,1,1,0,0,1-.3.34Zm.16-2.6a1.94,1.94,0,0,0-.71-.13h-.1L11.6,5.32h8.21l.1.22Zm9,5.67a5.32,5.32,0,0,1-2.56-10l2.11,4.86.89-.38L22,8a5.32,5.32,0,1,1,1.67,10.37Z"/></g></svg>