<svg id="Слой_1" data-name="Слой 1" xmlns="http://www.w3.org/2000/svg" viewBox="0 0 25.57 26"><title>icon__helmet</title><g id="outline"><path d="M22.44.18A.44.44,0,0,0,22.1,0H15.19A14.57,14.57,0,0,0,13,.07,14.23,14.23,0,0,0,0,14.32a.43.43,0,0,0,.43.43H9.36l5,5.45.78,1.16v4.21a.43.43,0,0,0,.43.43h1.73a.44.44,0,0,0,.44-.43V21.36l.78-1.17,3-3.68.19.25a.44.44,0,0,0,.34.16h1.3a.44.44,0,0,0,.43-.44V12.69l1.69-3.4a.4.4,0,0,0,.05-.24,11.66,11.66,0,0,0-3.34-6.93l-.08-.07.37-1.5A.39.39,0,0,0,22.44.18ZM14.75,19.31l-4.34-4.69.9-.33,4.12,4.33ZM12.2,14l2.61-1h2l3,1.51L16.7,18.2h-.48Zm4.7,11.16H16V21.67h.87Zm.2-4.33H15.83L15.29,20l.92-.92h.51l.92.92Zm1.07-1.51-.68-.68,3-3.48.56.69ZM23,16.05h-.66l-1.6-2a.44.44,0,0,0-.15-.12L18.74,13H23Zm1.72-7-1.56,3.13h-8.4a.32.32,0,0,0-.14,0l-4.7,1.7h-9A13.36,13.36,0,0,1,13.08.94,14.56,14.56,0,0,1,15.17.88h6.38l-.3,1.2a.42.42,0,0,0,.11.41l.25.25A10.74,10.74,0,0,1,24.69,9Z"/><path d="M19.48,8.68h-4l-.45,0h0a5.15,5.15,0,0,0-3.54,1.86.43.43,0,0,0,.05.61.42.42,0,0,0,.28.1h6.8l.51,0,.22,0,.27-.05.29-.07.17,0,.32-.12.05,0h0a4.75,4.75,0,0,0,2-1.52.44.44,0,0,0-.09-.61.39.39,0,0,0-.26-.09ZM12.9,10.42l.12-.09.12.09Zm1.69,0-.72-.55A4.52,4.52,0,0,1,15,9.59c.34.27.67.54,1,.83Zm2.61,0c-.3-.3-.62-.59-.94-.87h.88c.2.29.4.57.58.87Zm2-.05h-.06l-.36,0h-.07c-.17-.29-.35-.58-.54-.86h1l.43.72ZM20.48,10l-.23-.4h.83a4.81,4.81,0,0,1-.6.4Z"/><path d="M8.15,7.5h0A12.39,12.39,0,0,1,9.75,6.3v0a12.29,12.29,0,0,1,3.11-1.41h0a14.43,14.43,0,0,1,1.58-.36h0L15,4.43h0a12.4,12.4,0,0,1,1.36-.08h1a3,3,0,0,0,2.86-2A.43.43,0,0,0,20,1.78a.32.32,0,0,0-.14,0H16.39A14.9,14.9,0,0,0,4,8.39L2.5,10.61a.43.43,0,0,0,.12.6.4.4,0,0,0,.24.07h.57A3.24,3.24,0,0,0,6.14,9.83,12.75,12.75,0,0,1,8.15,7.5Zm8.24-4.88h2.75a2.17,2.17,0,0,1-1.73.86h-1c-.43,0-.85,0-1.28.07-.3-.26-.61-.51-.92-.76a14.72,14.72,0,0,1,2.2-.17ZM13.07,3c.3.22.59.45.88.69-.37.07-.73.16-1.1.26-.28-.22-.57-.43-.87-.64.36-.12.72-.22,1.09-.31ZM11,3.7c.29.19.57.39.85.6A12.43,12.43,0,0,0,9.46,5.45c-.32-.14-.65-.26-1-.39A13.9,13.9,0,0,1,11,3.7ZM6.85,6.35c.25-.23.51-.45.79-.67L8.6,6c-.26.2-.52.4-.77.61l0,0c-.31-.12-.63-.22-.94-.33Zm-1.43,3A2.34,2.34,0,0,1,3.68,10.4l1-1.53A14.29,14.29,0,0,1,6.16,7l.91.31a13.19,13.19,0,0,0-1.65,2Z"/><path d="M15.57,5.22l-.65,0h0l-.66.07h0a9.51,9.51,0,0,0-3.19,1.05h0l-.05,0-.41.23,0,0a9,9,0,0,0-1.19.86l-.06,0h0A9.68,9.68,0,0,0,7.74,9.31l-.9,1.29a.44.44,0,0,0,.36.68H8.94a1.14,1.14,0,0,0,.94-.49A6.91,6.91,0,0,1,11.56,9.1h0a7,7,0,0,1,4-1.28H19.4a3.05,3.05,0,0,0,2.86-2A.43.43,0,0,0,22,5.24a.32.32,0,0,0-.14,0ZM9.16,10.3a.27.27,0,0,1-.22.12H8l.42-.62A9.49,9.49,0,0,1,9.67,8.41l.84.41A7.92,7.92,0,0,0,9.16,10.3Zm3-2.55-.39.2-.06,0-.38.23,0,0-.87-.45.08-.06.29-.2.11-.07.34-.21,0,0,.92.5Zm1-.42c-.32-.2-.65-.39-1-.57a8.63,8.63,0,0,1,1.94-.56c.27.25.54.51.8.78A7.12,7.12,0,0,0,13.19,7.33Zm7.94-1.25A2.16,2.16,0,0,1,19.39,7h-.95c-.24-.29-.48-.58-.74-.87Zm-5,.87c-.27-.29-.55-.58-.83-.86h1.22q.41.44.78.87Z"/></g></svg>