<?xml version="1.0" encoding="utf-8"?>
<!-- Generator: Adobe Illustrator 23.1.0, SVG Export Plug-In . SVG Version: 6.00 Build 0)  -->
<svg version="1.1" id="Layer_1" xmlns="http://www.w3.org/2000/svg" xmlns:xlink="http://www.w3.org/1999/xlink" x="0px" y="0px"
	 viewBox="0 0 490 490" style="enable-background:new 0 0 490 490;" xml:space="preserve">
<style type="text/css">
	.st0{fill:#F9F9F9;}
</style>
<g>
	<g>
		<g>
			<path class="st0" d="M460,0H30C13.5,0,0,13.5,0,30v430c0,16.5,13.5,30,30,30h430c16.5,0,30-13.5,30-30V30C490,13.5,476.5,0,460,0
				z M470,460c0,5.5-4.5,10-10,10H30c-5.5,0-10-4.5-10-10V30c0-5.5,4.5-10,10-10h430c5.5,0,10,4.5,10,10V460z"/>
			<path class="st0" d="M396.4,95.2c-5.3,0-11,0.9-16.8,2.7c-0.2,0.1-0.4,0.1-0.6,0.2l-317.6,123c-0.7,0.3-1.3,0.6-1.9,1
				c-1,0.6-9.3,6.5-10.3,17.4c-0.8,8.5,3.1,17,11.5,25.1c17.8,17.2,58.6,24.6,74.7,26.9l32.9,89.3c0.1,0.3,0.3,0.7,0.4,1
				c2.7,5.4,10.4,14.4,22.3,14.4c7.9,0,15.9-4,23.7-11.8l29-29l78.1,55.1c0.1,0.1,0.1,0.1,0.2,0.1c1,0.7,6.7,4.2,14.3,4.2
				c6,0,17.4-2.3,25.2-18c10.2-20.5,62.3-243.8,68.2-269.2c0.2-0.7,0.3-1.5,0.3-2.3C430,107.9,415.9,95.2,396.4,95.2z M343.7,388
				c-1.6,3.2-4.1,7-7.3,7c-1.4,0-2.7-0.6-3.3-0.9l-84.7-59.8c-4-2.8-9.4-2.3-12.8,1.1l-35,35c-5.5,5.5-8.7,6-9.6,6
				c-2,0-3.7-2.3-4.3-3.2L152,279c-1.3-3.5-4.5-6.1-8.3-6.5c-14.6-1.7-55.4-8.9-69.2-22.3c-5.3-5.1-5.5-8-5.5-8.8
				c0.1-0.9,0.7-1.8,1.1-2.3l315.7-122.3c3.8-1.1,7.3-1.7,10.5-1.7c3.1,0,12.8,0.7,13.5,9.3C387,223.4,350.6,374.2,343.7,388z"/>
			<path class="st0" d="M365,136.8l-200,115c-4.2,2.4-6.1,7.6-4.4,12.2l30,80c1.4,3.7,4.8,6.2,8.7,6.5c0.2,0,0.5,0,0.7,0
				c3.7,0,7.1-2,8.8-5.3l34.3-63.6l133.9-128.9c3.6-3.5,4.1-9.2,1.1-13.2C375,135.4,369.4,134.3,365,136.8z M228.1,268.3
				c-0.7,0.7-1.4,1.5-1.9,2.5l-24.6,45.6l-19.3-51.4l122.1-70.2L228.1,268.3z"/>
		</g>
	</g>
</g>
</svg>
