<svg id="Слой_1" data-name="Слой 1" xmlns="http://www.w3.org/2000/svg" viewBox="0 0 26 20.97"><title>icon__cart</title><path d="M24.32,5h-5V3.77a.42.42,0,0,0-.42-.42H17.61V.42A.42.42,0,0,0,17.19,0H8.81a.42.42,0,0,0-.42.42V3.35H7.13a.42.42,0,0,0-.42.42V5h-5a1.68,1.68,0,0,0,0,3.36h.05L3.16,19.15A2.11,2.11,0,0,0,5.24,21H20.76a2.11,2.11,0,0,0,2.08-1.82L24.27,8.39h.05a1.68,1.68,0,0,0,0-3.36ZM9.23.84h7.54V3.35H9.23ZM7.55,4.19h10.9V5H7.55ZM22,19a1.26,1.26,0,0,1-1.24,1.09H5.24A1.26,1.26,0,0,1,4,19L2.58,8.39H23.42ZM24.32,7.55H1.68a.84.84,0,0,1,0-1.68H24.32a.84.84,0,0,1,0,1.68Z"/><path d="M13,19.29A1.26,1.26,0,0,0,14.26,18V10.48a1.26,1.26,0,0,0-2.52,0V18A1.26,1.26,0,0,0,13,19.29Zm-.42-8.81a.42.42,0,0,1,.84,0V18a.42.42,0,1,1-.84,0Z"/><path d="M16.35,19.29A1.25,1.25,0,0,0,17.61,18V10.48a1.26,1.26,0,0,0-2.51,0V18A1.25,1.25,0,0,0,16.35,19.29Zm-.41-8.81a.42.42,0,1,1,.83,0V18a.42.42,0,1,1-.83,0Z"/><path d="M6.29,19.29A1.26,1.26,0,0,0,7.55,18V10.48a1.26,1.26,0,0,0-2.52,0V18A1.26,1.26,0,0,0,6.29,19.29Zm-.42-8.81a.42.42,0,0,1,.84,0V18a.42.42,0,0,1-.84,0Z"/><path d="M9.65,19.29A1.25,1.25,0,0,0,10.9,18V10.48a1.26,1.26,0,0,0-2.51,0V18A1.25,1.25,0,0,0,9.65,19.29Zm-.42-8.81a.42.42,0,1,1,.83,0V18a.42.42,0,1,1-.83,0Z"/><path d="M19.71,19.29A1.26,1.26,0,0,0,21,18V10.48a1.26,1.26,0,0,0-2.52,0V18A1.26,1.26,0,0,0,19.71,19.29Zm-.42-8.81a.42.42,0,1,1,.84,0V18a.42.42,0,1,1-.84,0Z"/><path d="M10.06,1.68h.84v.84h-.84Z"/><path d="M15.1,1.68h.84v.84H15.1Z"/></svg>