<?xml version="1.0" encoding="utf-8"?>
<!-- Generator: Adobe Illustrator 23.1.0, SVG Export Plug-In . SVG Version: 6.00 Build 0)  -->
<svg version="1.1" id="Слой_1" xmlns="http://www.w3.org/2000/svg" xmlns:xlink="http://www.w3.org/1999/xlink" x="0px" y="0px"
	 viewBox="0 0 485 485" style="enable-background:new 0 0 485 485;" xml:space="preserve">
<style type="text/css">
	.st0{fill:#FFFFFF;}
	.st1{fill:#F9F9F9;}
</style>
<path class="st0" d="M144.8,276c12.2,16.5,26.1,31,44.2,41.4c20.4,11.7,42.4,15.2,65.7,14.1c10.8-0.5,14.1-3.3,14.6-14.2
	c0.3-7.4,1.2-14.8,4.8-21.4c3.6-6.5,9-7.8,15.3-3.7c3.1,2.1,5.8,4.6,8.2,7.4c6.1,6.7,12,13.6,18.4,20c8,8.1,17.4,12.9,29.2,11.9
	l45.9,0c7.4-0.5,11.2-9.6,7-17.8c-3-5.8-6.9-10.9-11-15.9c-9.4-11.3-20.4-20.9-30.9-31c-9.4-9.2-10-14.5-2.4-25.1
	c8.3-11.6,17.2-22.7,25.5-34.2c7.8-10.8,15.8-21.5,19.8-34.4c2.6-8.2,0.3-11.8-8.1-13.3c-1.5-0.2-3-0.2-4.4-0.2l-49.9-0.1
	c-6.1-0.1-9.5,2.6-11.7,8c-2.9,7.4-6,14.7-9.5,21.8c-7.9,16.1-16.8,31.7-29.2,44.9c-2.7,2.9-5.8,6.6-10.4,5.1
	c-5.7-2.1-7.4-11.5-7.3-14.7l0-57.6c-1.1-8.2-2.9-11.9-11.1-13.5h-51.8c-6.9,0-10.4,2.7-14.1,7c-2.1,2.5-2.8,4.1,1.6,5
	c8.6,1.6,13.5,7.2,14.7,15.8c2.1,13.8,1.9,27.6,0.7,41.5c-0.3,4-1,8.1-2.6,11.8c-2.5,5.9-6.6,7.1-11.9,3.5c-4.8-3.3-8.2-8-11.5-12.6
	c-12.4-17.6-22.3-36.5-30.4-56.4c-2.3-5.8-6.4-9.2-12.5-9.3c-15-0.2-30-0.3-44.9,0c-9,0.2-11.7,4.5-8,12.7
	C102.9,208.6,121.1,243.8,144.8,276z"/>
<path class="st1" d="M0,0v485h485V0H0z M455,455H30V30h425V455z"/>
</svg>
