<?xml version="1.0" encoding="utf-8"?>
<!-- Generator: Adobe Illustrator 23.1.0, SVG Export Plug-In . SVG Version: 6.00 Build 0)  -->
<svg version="1.1" id="Слой_1" xmlns="http://www.w3.org/2000/svg" xmlns:xlink="http://www.w3.org/1999/xlink" x="0px" y="0px"
	 viewBox="0 0 139.2 139.8" style="enable-background:new 0 0 139.2 139.8;" xml:space="preserve">
<style type="text/css">
	.st0{fill:#231F20;}
</style>
<title>logo__bbc</title>
<path class="st0" d="M69.6,139.8c-38.6,0.1-70-31-70.1-69.6s31-70,69.6-70.1s70,31,70.1,69.6c0,0.1,0,0.2,0,0.3
	C139.3,108.4,108.1,139.6,69.6,139.8z M69.6,6C34.3,5.9,5.6,34.3,5.5,69.6c-0.1,35.3,28.3,64,63.6,64.1c35.3,0.1,64-28.3,64.1-63.6
	c0-0.1,0-0.2,0-0.3C133.3,34.7,104.8,6.1,69.6,6z"/>
<ellipse transform="matrix(0.9744 -0.2248 0.2248 0.9744 -9.4154 14.3841)" class="st0" cx="58.5" cy="48.5" rx="6.7" ry="10.5"/>
<ellipse transform="matrix(0.2248 -0.9744 0.9744 0.2248 15.3136 116.3526)" class="st0" cx="80.8" cy="48.6" rx="10.5" ry="6.7"/>
<path class="st0" d="M33.6,64.8v6.8c0.1,1-0.2,1.9-0.8,2.6c-0.5,0.6-1.3,0.9-2.1,0.9c-0.7,0-1.3-0.2-1.8-0.7
	c-0.4-0.3-0.6-0.8-0.8-1.3c-0.1,0.7-0.5,1.4-1.1,1.9c-0.5,0.4-1.2,0.6-1.9,0.6c-1.2,0-2.2-0.6-2.8-1.6c-0.2-0.4-0.3-0.9-0.4-1.4
	c-0.1-0.5-0.1-1.1-0.1-1.6v-6.3H33.6z M24.3,68.5v1.9c0,0.5,0.1,0.9,0.3,1.3c0.2,0.3,0.6,0.4,0.9,0.4c0.3,0,0.6-0.1,0.8-0.4
	c0.3-0.4,0.4-0.9,0.3-1.3v-1.9H24.3z M28.9,68.5v1.6c0,0.4,0.1,0.8,0.3,1.2c0.2,0.2,0.5,0.4,0.8,0.3c0.3,0,0.6-0.1,0.8-0.3
	c0.2-0.4,0.3-0.8,0.3-1.2v-1.6L28.9,68.5z"/>
<path class="st0" d="M22.3,78.8l11.3-3.4l1.8,5.8c0.3,0.8,0.4,1.7,0.5,2.6c0,0.6-0.2,1.2-0.6,1.7c-0.4,0.5-1,0.9-1.7,1.1
	c-0.6,0.2-1.2,0.2-1.7,0.1c-0.5-0.1-1-0.4-1.4-0.8c-0.3-0.3-0.6-0.7-0.8-1.1c0,0.3-0.1,0.7-0.1,1c-0.1,0.3-0.3,0.5-0.4,0.7
	c-0.2,0.2-0.3,0.5-0.5,0.7l-2.8,2.7l-1.2-3.9l2.9-2.8c0.3-0.2,0.5-0.6,0.7-0.9c0.1-0.3,0.1-0.6,0-0.9L27.9,81l-4.6,1.4L22.3,78.8z
	 M30.1,80.3l0.4,1.5c0.1,0.3,0.3,0.6,0.4,0.9c0.1,0.2,0.3,0.4,0.5,0.5c0.2,0.1,0.5,0.1,0.7,0c0.3-0.1,0.6-0.3,0.7-0.6
	c0.1-0.5,0.1-0.9-0.1-1.4l-0.5-1.5L30.1,80.3z"/>
<path class="st0" d="M31.8,88.7c1.3-1,3-1.4,4.6-1.2c1.6,0.4,3,1.4,3.8,2.8c1,1.3,1.5,3,1.2,4.7c-0.4,1.6-1.4,3-2.8,3.8
	c-0.9,0.7-2,1.2-3.2,1.3c-1,0.1-2-0.1-2.8-0.5c-1-0.5-1.8-1.3-2.5-2.3c-0.7-0.9-1.1-2-1.3-3.2c-0.1-1,0-2,0.5-2.9
	C30,90.2,30.8,89.3,31.8,88.7z M33.8,91.7c-0.8,0.4-1.4,1.2-1.8,2c-0.3,1.4,0.6,2.7,1.9,3c0,0,0.1,0,0.1,0c1,0,1.9-0.4,2.6-1
	c0.8-0.4,1.3-1.1,1.7-1.9c0.2-0.7,0-1.4-0.4-2c-0.4-0.6-1-0.9-1.6-1C35.4,90.8,34.6,91.1,33.8,91.7L33.8,91.7z"/>
<path class="st0" d="M43.8,95.3l2.9,2.2L44,101l5.8-1.2l3.8,3l-6.1,0.9l-1,8.6l-3.5-2.8l1-5.4l-2.7,0.4l-1.8,2.3l-2.9-2.3L43.8,95.3
	z"/>
<path class="st0" d="M54.8,102.6l9.3,3.1l-0.8,2.4l-5.8-2l-0.6,1.8l5.4,1.8l-0.8,2.3l-5.4-1.8l-0.8,2.2l6,2l-0.9,2.5l-9.4-3.2
	L54.8,102.6z"/>
<path class="st0" d="M66.2,105.7h3.4l4.4,6.6v-6.5h3.4v11.8h-3.5l-4.4-6.5v6.5h-3.4L66.2,105.7z"/>
<path class="st0" d="M79,105.3l6.2-2.9c0.8-0.5,1.8-0.6,2.7-0.3c0.8,0.2,1.4,0.8,1.7,1.5c0.3,0.6,0.4,1.3,0.2,1.9
	c-0.2,0.5-0.4,0.9-0.8,1.3c0.7-0.2,1.5-0.1,2.1,0.2c0.6,0.3,1.1,0.8,1.3,1.4c0.3,0.5,0.4,1.1,0.3,1.7c0,0.6-0.2,1.1-0.6,1.6
	c-0.3,0.4-0.7,0.7-1.1,0.9c-0.7,0.4-1.2,0.7-1.4,0.8L84,116L79,105.3z M84.3,107.9l1.4-0.7c0.4-0.1,0.8-0.4,1-0.8
	c0.1-0.3,0.1-0.6-0.1-0.9c-0.1-0.3-0.4-0.5-0.7-0.6c-0.4-0.1-0.8,0-1.2,0.2l-1.4,0.7L84.3,107.9z M86.3,112.1l1.7-0.8
	c0.4-0.2,0.8-0.5,1.1-0.9c0.2-0.3,0.2-0.7,0-1c-0.1-0.3-0.4-0.5-0.7-0.6c-0.5-0.1-0.9,0-1.3,0.3l-1.7,0.8L86.3,112.1z"/>
<path class="st0" d="M90.1,99.4l2.9-2.2l7,9.5l-2.9,2.2L90.1,99.4z"/>
<path class="st0" d="M95,95.4l2.2-2.9l3.6,2.7l-1.2-5.8l3-3.9l0.9,6.1l8.6,0.9l-2.7,3.6l-5.4-1l0.4,2.7l2.3,1.8l-2.2,2.9L95,95.4z"
	/>
<path class="st0" d="M102.8,84.5l2.9-9.3l2.4,0.8l-1.8,5.8l1.8,0.6l1.7-5.4l2.3,0.7l-1.7,5.4l2.2,0.7l1.9-6l2.6,0.8l-3,9.5
	L102.8,84.5z"/>
<path class="st0" d="M113,74.4l-0.3-3.5c0.5-0.1,0.9-0.2,1.3-0.5c0.5-0.4,0.7-1,0.7-1.6c0-0.4-0.1-0.9-0.4-1.2
	c-0.2-0.3-0.5-0.4-0.9-0.4c-0.3,0-0.6,0.2-0.8,0.4c-0.4,0.6-0.6,1.2-0.6,1.9c-0.2,1.2-0.6,2.4-1.3,3.5c-0.5,0.7-1.4,1.1-2.3,1.1
	c-0.6,0-1.2-0.1-1.7-0.5c-0.6-0.4-1-0.9-1.3-1.5c-0.4-0.9-0.6-1.9-0.6-2.9c-0.1-1.2,0.1-2.4,0.7-3.5c0.6-0.9,1.6-1.4,2.6-1.5
	l0.3,3.4c-0.4,0.1-0.8,0.3-1.1,0.6c-0.2,0.4-0.4,0.8-0.3,1.2c0,0.3,0.1,0.7,0.3,0.9c0.2,0.2,0.4,0.3,0.7,0.3c0.2,0,0.4-0.1,0.5-0.3
	c0.2-0.4,0.4-0.8,0.4-1.2c0.2-1.2,0.5-2.3,0.9-3.5c0.3-0.6,0.7-1.2,1.3-1.5c0.5-0.3,1.1-0.5,1.7-0.5c0.7,0,1.5,0.2,2.1,0.6
	c0.7,0.4,1.2,1,1.5,1.7c0.4,0.9,0.6,1.9,0.6,2.8c0.1,2-0.3,3.4-1,4.2C115.1,73.8,114.1,74.3,113,74.4z"/>
</svg>
