<svg id="Слой_1" data-name="Слой 1" xmlns="http://www.w3.org/2000/svg" viewBox="0 0 139.24 139.75"><title>logo__bbc</title><ellipse cx="69.62" cy="69.87" rx="66.62" ry="66.88" style="fill:#f7ec13"/><path d="M70.87,140.64a69.88,69.88,0,1,1,69.61-69.87A69.83,69.83,0,0,1,70.87,140.64Zm0-133.75a63.88,63.88,0,1,0,63.61,63.88A63.82,63.82,0,0,0,70.87,6.89Z" transform="translate(-1.25 -0.89)" style="fill:#231f20"/><ellipse cx="59.71" cy="49.44" rx="6.65" ry="10.47" transform="translate(-10.83 13.79) rotate(-12.99)" style="fill:#231f20"/><ellipse cx="82.02" cy="49.44" rx="10.47" ry="6.65" transform="translate(14.17 117.36) rotate(-77.01)" style="fill:#231f20"/><path d="M34.81,65.7l0,6.83a3.69,3.69,0,0,1-.85,2.62,2.74,2.74,0,0,1-2.1.91,2.61,2.61,0,0,1-1.79-.66,2.88,2.88,0,0,1-.79-1.27A3.34,3.34,0,0,1,28.21,76a2.92,2.92,0,0,1-1.88.59A3.17,3.17,0,0,1,23.52,75a4.05,4.05,0,0,1-.38-1.39A15,15,0,0,1,23,72l0-6.3Zm-9.28,3.66v1.86a2.07,2.07,0,0,0,.33,1.33,1.13,1.13,0,0,0,.9.39,1,1,0,0,0,.84-.38,2.18,2.18,0,0,0,.33-1.35V69.36Zm4.64,0V71a1.8,1.8,0,0,0,.3,1.19,1,1,0,0,0,.84.34,1,1,0,0,0,.81-.33A1.82,1.82,0,0,0,32.4,71V69.37Z" transform="translate(-1.25 -0.89)" style="fill:#231f20"/><path d="M23.52,79.7l11.31-3.42,1.76,5.82a9.19,9.19,0,0,1,.47,2.56,2.82,2.82,0,0,1-.62,1.7,3.18,3.18,0,0,1-1.67,1.07,3.27,3.27,0,0,1-1.74.09,3.16,3.16,0,0,1-1.44-.77,4.11,4.11,0,0,1-.82-1.09,4,4,0,0,1-.14,1,4.52,4.52,0,0,1-.43.74,4.85,4.85,0,0,1-.55.7l-2.77,2.68-1.19-3.95L28.58,84a2.91,2.91,0,0,0,.68-.89,1.51,1.51,0,0,0,0-.94l-.09-.31-4.59,1.39Zm7.79,1.48.44,1.47a5.76,5.76,0,0,0,.43.88,1,1,0,0,0,.53.46,1.11,1.11,0,0,0,.72,0,1.09,1.09,0,0,0,.74-.6,2.24,2.24,0,0,0-.1-1.39l-.47-1.54Z" transform="translate(-1.25 -0.89)" style="fill:#231f20"/><path d="M33.1,89.56a6.09,6.09,0,0,1,4.64-1.18,6.05,6.05,0,0,1,3.84,2.82,6.17,6.17,0,0,1,1.23,4.65A6,6,0,0,1,40,99.65,7.26,7.26,0,0,1,36.81,101a4.89,4.89,0,0,1-2.83-.52,6.64,6.64,0,0,1-2.45-2.31A7.66,7.66,0,0,1,30.21,95a5,5,0,0,1,.49-2.88A6.66,6.66,0,0,1,33.1,89.56Zm2,3a4,4,0,0,0-1.76,2,2.51,2.51,0,0,0,2,3,4.34,4.34,0,0,0,2.64-1,3.69,3.69,0,0,0,1.65-1.92,2.36,2.36,0,0,0-.38-2,2.24,2.24,0,0,0-1.64-1A4,4,0,0,0,35.13,92.59Z" transform="translate(-1.25 -0.89)" style="fill:#231f20"/><path d="M45.09,96.14,48,98.38l-2.75,3.52L51,100.74l3.83,3-6.14.86-1,8.56-3.55-2.77,1-5.36-2.7.4-1.77,2.27-2.88-2.25Z" transform="translate(-1.25 -0.89)" style="fill:#231f20"/><path d="M56.06,103.46l9.27,3.13L64.52,109l-5.8-2-.6,1.78,5.38,1.81-.77,2.29-5.38-1.82-.75,2.21,6,2-.86,2.54-9.43-3.19Z" transform="translate(-1.25 -0.89)" style="fill:#231f20"/><path d="M67.48,106.58h3.4l4.43,6.55,0-6.54h3.44l0,11.81H75.3l-4.41-6.49v6.48H67.45Z" transform="translate(-1.25 -0.89)" style="fill:#231f20"/><path d="M80.22,106.19l6.18-2.92a3.76,3.76,0,0,1,2.74-.35,2.76,2.76,0,0,1,1.72,1.5,2.65,2.65,0,0,1,.17,1.91,2.91,2.91,0,0,1-.81,1.25,3.41,3.41,0,0,1,2.14.15,2.87,2.87,0,0,1,1.34,1.44,3.26,3.26,0,0,1,.32,1.68,3.14,3.14,0,0,1-.56,1.55,3.84,3.84,0,0,1-1.09.94c-.7.44-1.17.73-1.41.84l-5.7,2.69Zm5.31,2.61,1.44-.67a1.81,1.81,0,0,0,1-.78,1.13,1.13,0,0,0-.06-.91,1,1,0,0,0-.65-.58,1.83,1.83,0,0,0-1.18.23l-1.45.69Zm2,4.2,1.68-.79a2,2,0,0,0,1.06-.87,1.13,1.13,0,0,0,0-1,1.07,1.07,0,0,0-.71-.6,2.09,2.09,0,0,0-1.34.29l-1.68.79Z" transform="translate(-1.25 -0.89)" style="fill:#231f20"/><path d="M91.35,100.25l2.94-2.18,7,9.48-2.94,2.18Z" transform="translate(-1.25 -0.89)" style="fill:#231f20"/><path d="M96.24,96.28l2.21-2.9L102,96.1l-1.22-5.75,3-3.86.92,6.13,8.57.9-2.73,3.57-5.37-1,.43,2.7,2.28,1.75-2.21,2.9Z" transform="translate(-1.25 -0.89)" style="fill:#231f20"/><path d="M104.06,85.35,107,76l2.41.76-1.83,5.84,1.79.56,1.7-5.41,2.3.72-1.7,5.42,2.22.69,1.88-6,2.56.8-3,9.5Z" transform="translate(-1.25 -0.89)" style="fill:#231f20"/><path d="M114.23,75.29l-.32-3.46a2.62,2.62,0,0,0,1.27-.5,1.92,1.92,0,0,0,.67-1.63,1.8,1.8,0,0,0-.4-1.19,1.08,1.08,0,0,0-.87-.4,1.06,1.06,0,0,0-.8.43,4.42,4.42,0,0,0-.63,1.89,8,8,0,0,1-1.33,3.46,2.89,2.89,0,0,1-2.25,1.1,3.13,3.13,0,0,1-1.74-.47A3.57,3.57,0,0,1,106.51,73a7.48,7.48,0,0,1-.55-2.89,6,6,0,0,1,.74-3.48,3.65,3.65,0,0,1,2.64-1.49l.3,3.43a1.84,1.84,0,0,0-1.14.61,1.9,1.9,0,0,0-.33,1.22,1.45,1.45,0,0,0,.3.95.87.87,0,0,0,.67.31.68.68,0,0,0,.5-.28,3,3,0,0,0,.39-1.24,15.54,15.54,0,0,1,.94-3.46,3.68,3.68,0,0,1,1.27-1.54,3.32,3.32,0,0,1,1.73-.53,3.75,3.75,0,0,1,2.11.57,3.88,3.88,0,0,1,1.51,1.71,7,7,0,0,1,.58,2.83c.06,2-.28,3.41-1,4.2A4.52,4.52,0,0,1,114.23,75.29Z" transform="translate(-1.25 -0.89)" style="fill:#231f20"/></svg>