<?xml version="1.0" encoding="utf-8"?>
<!-- Generator: Adobe Illustrator 23.1.0, SVG Export Plug-In . SVG Version: 6.00 Build 0)  -->
<svg version="1.1" id="Слой_1" xmlns="http://www.w3.org/2000/svg" xmlns:xlink="http://www.w3.org/1999/xlink" x="0px" y="0px"
	 viewBox="0 0 60 60" style="enable-background:new 0 0 60 60;" xml:space="preserve">
<style type="text/css">
	.st0{fill:#FCFCFC;}
	.st1{fill:#1D1D1B;}
</style>
<title>papa-palka__logo</title>
<rect class="st0" width="60" height="60"/>
<path class="st1" d="M0,0v60h60V0H0z M57.4,57.4H2.6V2.6h54.9L57.4,57.4L57.4,57.4z"/>
<polygon class="st1" points="7.7,7.7 13.1,7.7 13.1,28.7 15.6,28.7 15.6,5.2 15.4,5.2 13.1,5.2 7.7,5.2 5.1,5.2 5.1,7.7 5.1,28.7 
	7.7,28.7 "/>
<polygon class="st1" points="33.3,7.7 38.7,7.7 38.7,28.7 41.3,28.7 41.3,5.2 41.1,5.2 38.7,5.2 33.3,5.2 30.8,5.2 30.8,7.7 
	30.8,28.7 33.3,28.7 "/>
<path class="st1" d="M46,28.7l0.9-8.6h4.5l0.9,8.6h2.6L52.5,5.3l0,0V5.2h-8.1v2.6h1.2l-2.1,21L46,28.7L46,28.7z M50.2,7.7l1,9.8h-4
	l1-9.8H50.2z"/>
<path class="st1" d="M20.3,28.7l0.9-8.6h4.6l0.9,8.6h2.6L26.8,5.3l0,0V5.2h-8.1v2.6h1.1l-2.1,21L20.3,28.7L20.3,28.7z M24.4,7.7
	l1,9.8h-4l1-9.8H24.4z"/>
<polygon class="st1" points="7.4,33.5 11.5,33.5 11.5,54.9 13.7,54.9 13.7,31.3 13.7,31.3 11.5,31.3 7.4,31.3 5.1,31.3 5.1,33.5 
	5.1,54.9 7.4,54.9 "/>
<polygon class="st1" points="39.6,41.5 37.5,41.5 37.5,31.3 35.3,31.3 35.3,54.9 37.5,54.9 37.5,43.7 39.4,43.7 41.2,54.9 
	42.6,54.9 43.4,54.9 44.2,54.9 44.2,52.6 43.1,52.6 41.5,43.1 43.1,33.5 44.2,33.5 44.2,31.3 43.5,31.3 42.6,31.3 41.2,31.3 "/>
<path class="st1" d="M23.4,31.3h-7.8v2.2h1.2l-2.2,21.3h2.2l0.9-8.9H22l0.6,8.9h2.2l-1.5-23.2L23.4,31.3L23.4,31.3z M18,43.7l1-10.2
	h2.3l0.6,10.2H18z"/>
<path class="st1" d="M53.4,31.3h-7.8v2.2h1.2l-2.2,21.3h2.2l0.9-8.9H52l0.6,8.9h2.2l-1.5-23.2L53.4,31.3L53.4,31.3z M48,43.7l1-10.2
	h2.3l0.6,10.2H48z"/>
<polygon class="st1" points="26.7,31.3 26.7,33.5 27.6,33.5 25.5,54.9 27.8,54.9 29.9,33.5 30,33.5 32.1,54.9 34.3,54.9 32,31.3 "/>
</svg>
